<?xml version="1.0" encoding="UTF-8" standalone="no"?>
<!DOCTYPE svg PUBLIC "-//W3C//DTD SVG 1.1//EN" "http://www.w3.org/Graphics/SVG/1.1/DTD/svg11.dtd">
<svg version="1.1" xmlns="http://www.w3.org/2000/svg" xmlns:xlink="http://www.w3.org/1999/xlink" preserveAspectRatio="xMidYMid meet" viewBox="0 0 640 640" width="640" height="640"><defs><path d="M620 211.01C631.05 211.01 640 219.97 640 231.01C640 265.44 640 348.72 640 383.15C640 394.19 631.05 403.15 620 403.15C571.8 403.15 447.19 403.15 398.99 403.15C387.94 403.15 378.99 394.19 378.99 383.15C378.99 348.72 378.99 265.44 378.99 231.01C378.99 219.97 387.94 211.01 398.99 211.01C447.19 211.01 571.8 211.01 620 211.01Z" id="aNmXwHPpv"></path><path d="M502.16 307.08C502.16 360.1 449.55 403.15 384.74 403.15C319.94 403.15 267.33 360.1 267.33 307.08C267.33 254.06 319.94 211.01 384.74 211.01C449.55 211.01 502.16 254.06 502.16 307.08Z" id="b5u5D6oA4B"></path><path d="M384.74 211.01L640 211.01L640 403.15L384.74 403.15L384.74 211.01Z" id="e1ILyyDVzl"></path></defs><g><g><g><use xlink:href="#aNmXwHPpv" opacity="1" fill="#5368df" fill-opacity="1.00"></use></g><g><use xlink:href="#b5u5D6oA4B" opacity="1" fill="#5368df" fill-opacity="1"></use></g><g><use xlink:href="#e1ILyyDVzl" opacity="1" fill="#5368df" fill-opacity="1"></use></g></g></g></svg>